<svg width="255" height="437" viewBox="0 0 255 437" fill="none" xmlns="http://www.w3.org/2000/svg">
<path fill-rule="evenodd" clip-rule="evenodd" d="M63.2494 -96.4508C111.312 -88.2763 110.959 -8.63063 149.84 21.3172C178.753 43.5866 243.819 14.3982 253.42 50.0258C265.701 95.6116 202.619 104.471 194.315 162.384C190.208 191.026 227.267 203.59 227.267 243.472C227.267 283.354 164.648 341.84 140.784 368.854C94.0031 421.807 43.3741 437 0.855583 437C-41.6629 437 -92.865 398.078 -92.865 345.101C-92.865 292.124 -52.0347 269.8 -51.0085 231.267C-50.3261 205.609 -86.3684 193.137 -92.865 168.339C-100.465 139.327 -99.5081 108.09 -90.7933 79.4049C-75.2256 28.1644 3.2345 -106.658 63.2494 -96.4508Z" fill="#D6E264"/>
</svg>
