<svg width="329" height="526" viewBox="0 0 329 526" fill="none" xmlns="http://www.w3.org/2000/svg">
<path d="M262.01 268.034C263.911 268.311 264.101 271.999 260.808 273.122C257.822 274.444 252.231 271.65 251.868 265.639C251.109 259.863 256.933 252.482 265.615 252.773C274.062 252.577 283.352 261.393 282.293 272.826C281.928 284.038 270.056 295.23 256 293.474C242.093 292.553 229.102 277.655 231.583 260.846C233.058 244.159 251.002 229.245 270.423 232.421C289.762 234.471 306.525 255.418 302.576 277.618C299.945 299.805 276.008 318.42 251.192 313.826C226.356 310.65 205.967 283.681 211.3 256.055C215.098 228.458 245 206.002 275.231 212.069C305.529 216.381 329.622 249.383 322.859 282.41C317.949 315.497 281.988 341.668 246.384 334.178C210.653 328.724 182.796 289.686 191.016 251.263C197.066 212.706 239.048 182.802 280.039 191.717C321.23 198.268 352.787 243.397 343.143 287.201C335.959 331.21 287.943 364.898 241.577 354.527C194.934 346.835 159.658 295.691 170.733 246.471C179.066 196.954 233.095 159.613 284.846 171.368C336.922 180.231 375.97 237.34 363.426 291.993C353.982 346.99 293.892 388.057 236.769 374.879C179.248 364.881 136.477 301.735 150.45 241.68C161.031 181.223 227.148 136.393 289.654 151.016C352.638 162.099 399.101 231.376 383.709 296.785C371.989 362.713 299.847 411.289 231.961 395.231C163.538 382.995 113.308 307.733 130.167 236.888C142.997 165.483 221.206 113.195 294.462 130.664C368.378 144.034 422.235 225.351 403.992 301.576C389.986 378.435 305.832 434.517 227.153 415.583C147.769 401.095 90.2191 313.738 109.883 232.096C125.039 149.77 215.206 89.9526 299.27 110.313C384.088 125.92 445.4 219.364 424.275 306.368C408.003 394.202 311.784 457.707 222.346 435.932C132.074 419.181 67.0388 319.741 89.6001 227.305C107.008 134.021 209.258 66.7332 304.077 89.9619C399.807 107.819 468.544 213.342 444.559 311.16C426.003 409.956 317.749 480.899 217.538 456.284C116.382 437.257 43.8614 325.776 69.3169 222.513C88.9763 118.228 203.306 43.584 308.885 69.6106C415.501 89.7735 491.718 207.284 464.842 315.951C444.048 425.688 323.682 504.126 212.73 476.636C100.655 455.356 20.7314 331.783 49.0334 217.721C70.9768 102.517 197.352 20.353 313.693 49.2595C431.202 71.6581 514.883 201.297 485.125 320.743C462.082 441.429 329.624 527.323 207.922 496.988C84.9197 473.443 -2.39886 337.789 28.75 212.929C52.9706 86.8343 191.374 -2.90456 318.501 28.9081C446.969 53.5685 537.985 195.285 505.408 325.535C480.041 457.132 335.626 550.566 203.115 517.337C69.2087 491.557 -25.5669 343.785 8.46678 208.138C34.9441 71.0648 185.42 -26.0947 323.308 8.55698" stroke="#D6E264" stroke-width="3" stroke-linecap="round"/>
</svg>
