<svg width="327" height="214" viewBox="0 0 327 214" fill="none" xmlns="http://www.w3.org/2000/svg">
<path d="M166.74 49.6196C167.946 49.7949 168.066 52.134 165.977 52.8468C164.084 53.685 160.537 51.9132 160.307 48.0999C159.826 44.4362 163.52 39.7545 169.027 39.9391C174.385 39.815 180.277 45.4071 179.605 52.6589C179.374 59.7704 171.843 66.8698 162.928 65.7558C154.107 65.1715 145.867 55.7218 147.44 45.0603C148.376 34.4753 159.758 25.0157 172.076 27.0301C184.343 28.3306 194.975 41.6168 192.471 55.6983C190.802 69.7711 175.619 81.5787 159.878 78.6648C144.125 76.6502 131.192 59.5442 134.575 42.0209C136.984 24.5162 155.95 10.2729 175.126 14.1211C194.344 16.8564 209.626 37.7888 205.336 58.7376C202.222 79.7249 179.412 96.3249 156.829 91.5738C134.165 88.1143 116.495 63.3531 121.709 38.9816C125.547 14.5252 152.175 -4.44263 178.175 1.21216C204.303 5.36701 224.319 33.992 218.202 61.777C213.645 89.6914 183.189 111.059 153.779 104.481C124.194 99.6022 101.819 67.1618 108.844 35.9423C114.129 4.53368 148.4 -19.1516 181.225 -11.6956C214.256 -6.0736 239.024 30.1505 231.067 64.8163C225.077 99.7009 186.963 125.749 150.73 117.39C114.245 111.049 87.1151 70.9958 95.9784 32.903C102.689 -5.44463 144.627 -33.8801 184.274 -24.6048C224.225 -17.5747 253.696 26.3671 243.933 67.8556C236.499 109.674 190.74 140.485 147.68 130.299C104.28 122.538 72.4194 74.7999 83.1127 29.8636C91.2508 -15.428 140.858 -48.5943 187.324 -37.5134C234.208 -29.0335 268.37 22.546 256.798 70.895C247.914 119.646 194.536 155.219 144.63 143.208C94.2778 134.019 57.7741 78.6093 70.2471 26.8242C79.8601 -25.3947 137.052 -63.3367 190.374 -50.4221C244.173 -40.5227 283.063 18.748 269.664 73.9343C259.343 129.647 198.312 169.928 141.581 156.116C84.3226 145.491 43.071 82.417 57.3814 23.7849C68.4229 -35.3843 133.28 -78.0646 193.423 -63.3307C254.144 -52.004 297.743 14.9283 282.529 76.9737C270.76 139.64 202.095 184.638 138.531 169.025C74.3689 156.956 28.3697 86.2448 44.5159 20.7455C56.9858 -45.4017 129.504 -92.748 196.473 -76.2395C264.098 -63.4503 312.442 11.0861 295.395 80.013C282.205 149.618 205.858 199.371 135.482 181.934C64.3934 168.437 13.6984 90.0547 31.6503 17.7061C45.5688 -55.3671 125.728 -107.483 199.522 -89.1481C274.058 -74.9407 327.136 7.28846 308.261 83.0523C293.644 159.603 209.627 214.085 132.432 194.843C54.4127 179.909 -0.972925 93.8646 18.7846 14.6668C34.1476 -65.3146 121.936 -122.235 202.572 -102.057C284.058 -86.4149 341.789 3.47495 321.126 86.0917C305.036 169.563 213.434 228.828 129.383 207.751C44.4473 191.398 -15.6683 97.6674 5.91908 11.6274C22.7135 -75.3171 118.16 -136.945 205.621 -114.965" stroke="#7FA1F8" stroke-width="3" stroke-linecap="round"/>
</svg>
