<svg width="161" height="335" viewBox="0 0 161 335" fill="none" xmlns="http://www.w3.org/2000/svg">
<path d="M0.32387 170.561C1.53006 170.737 1.65017 173.076 -0.43853 173.789C-2.33217 174.627 -5.87843 172.855 -6.10889 169.042C-6.5901 165.378 -2.89638 160.696 2.61078 160.881C7.96884 160.757 13.8611 166.349 13.1894 173.601C12.9579 180.712 5.4273 187.812 -3.48814 186.698C-12.3093 186.113 -20.5494 176.664 -18.9757 166.002C-18.0399 155.417 -6.65827 145.957 5.66039 147.972C17.927 149.272 28.5595 162.559 26.0549 176.64C24.3863 190.713 9.20284 202.52 -6.53775 199.607C-22.2912 197.592 -35.2236 180.486 -31.8412 162.963C-29.4319 145.458 -10.4654 131.215 8.70999 135.063C27.9277 137.798 43.2099 158.73 38.9204 179.679C35.8061 200.667 12.996 217.267 -9.58735 212.515C-32.2512 209.056 -49.9211 184.295 -44.7067 159.923C-40.8693 135.467 -14.2408 116.499 11.7596 122.154C37.887 126.309 57.9031 154.934 51.786 182.719C47.2294 210.633 16.7734 232.001 -12.6367 225.423C-42.2221 220.544 -64.5973 188.104 -57.5722 156.884C-52.2867 125.475 -18.0163 101.79 14.8089 109.246C47.8401 114.868 72.6083 151.092 64.6515 185.758C58.6611 220.643 20.5469 246.691 -15.6863 238.332C-52.1713 231.991 -79.3008 191.938 -70.4375 153.845C-63.7264 115.497 -21.7885 87.0616 17.8586 96.3369C57.8088 103.367 87.2799 147.309 77.517 188.797C70.0829 230.615 24.324 261.427 -18.7359 251.241C-62.1359 243.48 -93.9965 195.742 -83.3032 150.805C-75.1651 105.514 -25.5575 72.3475 20.9081 83.4283C67.7926 91.9083 101.954 143.488 90.3825 191.837C81.4982 240.588 28.1201 276.16 -21.7855 264.15C-72.1381 254.961 -108.642 199.551 -96.1688 147.766C-86.5558 95.547 -29.3635 57.605 23.9576 70.5196C77.7572 80.419 116.647 139.69 103.248 194.876C92.9267 250.589 31.8957 290.869 -24.8348 277.058C-82.0933 266.433 -123.345 203.359 -109.034 144.727C-97.993 85.5574 -33.1359 42.8771 27.0072 57.611C87.7278 68.9377 131.328 135.87 116.114 197.915C104.344 260.581 35.6787 305.58 -27.8844 289.967C-92.047 277.898 -138.046 207.187 -121.9 141.687C-109.43 75.5401 -36.9116 28.1938 30.0567 44.7023C97.6822 57.4915 146.026 132.028 128.979 200.955C115.789 270.56 39.4421 320.313 -30.934 302.876C-102.023 289.378 -152.717 210.996 -134.766 138.648C-120.847 65.5747 -40.6881 13.4584 33.1062 31.7937C107.642 46.001 160.72 128.23 141.845 203.994C127.228 280.545 43.2111 335.027 -33.9836 315.785C-112.003 300.851 -167.389 214.806 -147.631 135.609C-132.268 55.6271 -44.4801 -1.29366 36.1558 18.8849C117.642 34.5268 175.373 124.417 154.71 207.033C138.62 290.505 47.0183 349.77 -37.0329 328.693C-121.969 312.34 -182.084 218.609 -160.497 132.569C-143.702 45.6246 -48.2562 -16.003 39.2053 5.97632" stroke="#7FA1F8" stroke-width="3" stroke-linecap="round"/>
</svg>
