<svg width="420" height="449" viewBox="0 0 420 449" fill="none" xmlns="http://www.w3.org/2000/svg">
<path d="M194.5 0L211.351 114.141L261.154 10.03L243.558 124.059L321.885 39.2286L271.406 143.014L371.298 85.0013L292.419 169.321L405.002 143.281L304.733 200.643L420 208.889L307.25 234.196L414.963 275.997L299.751 267.002L390.336 338.641L282.9 296.141L348.309 391.255L258.193 319.027L292.615 429.165L227.827 333.626L228.204 449L194.5 338.641L160.797 449L161.173 333.626L96.3851 429.165L130.808 319.027L40.6911 391.255L106.102 296.141L-1.33624 338.641L89.2499 267.002L-25.9628 275.997L81.7501 234.196L-31 208.889L84.2689 200.643L-16.0007 143.281L96.5821 169.321L17.7028 85.0013L117.595 143.014L67.1153 39.2286L145.443 124.059L127.847 10.03L177.649 114.141L194.5 0Z" fill="#D6E264"/>
</svg>
